<svg viewBox="-.384 0 297.366 81.1" xmlns="http://www.w3.org/2000/svg"><g fill="#FFF"><path d="M112.8 22.4c-5.5 0-9.8 3.2-9.8 7.8s3.6 6.1 8.1 7l5.7.9c7.5 1.2 12.7 4.7 12.7 12.9 0 8.6-7 13.6-16 13.6 -8.1 0-15.7-4.8-16.8-14.1 -.1-.8.5-1.5 1.3-1.5h3.4c.6 0 1.2.5 1.3 1.1 .7 6.6 5.8 9.2 10.8 9.2 5.5 0 9.8-2.7 9.8-8.2 0-4.9-3.5-6.6-8.1-7.5l-5.6-1c-7.8-1.3-12.7-5.1-12.7-12.2 0-8.3 7.2-13.4 15.9-13.4 6.9 0 14.6 3.9 16.1 13.2 .1.8-.5 1.5-1.3 1.5H124c-.6 0-1.2-.5-1.3-1.1 -1-5.9-5.5-8.2-9.9-8.2Z"/><path d="M151.9 27.5c8.4 0 14.3 4.5 16.4 11.8 .2.8-.4 1.7-1.3 1.7h-3.9c-.6 0-1-.4-1.2-.9 -1.5-4.2-4.8-6.5-10-6.5 -7 0-10.9 5.7-10.9 12.6 0 6.8 3.9 12.6 10.9 12.6 5.1 0 8.5-2.4 10-6.5 .2-.5.7-.9 1.2-.9h3.9c.9 0 1.5.8 1.2 1.7 -2.2 7.6-8 11.8-16.4 11.8 -10.8 0-17.6-8.3-17.6-18.6 .1-10.4 7-18.8 17.7-18.8Z"/><path d="M174.7 58.7h8.4V35.2h-7.5c-.7 0-1.3-.6-1.3-1.3v-3.3c0-.7.6-1.3 1.3-1.3h10.2c2.1 0 3.9 1.8 3.9 3.9v.9c1.9-4.5 5.9-5.6 12.1-5.6 2.4 0 4 .4 4.9.7 .5.2.8.7.8 1.2V34c0 .9-.8 1.5-1.7 1.2 -1.1-.4-2.7-.7-4.7-.7 -6.6 0-11.3 4.5-11.3 12.4v11.8h10.8c.7 0 1.3.6 1.3 1.3v3.3c0 .7-.6 1.3-1.3 1.3h-25.9c-.7 0-1.3-.6-1.3-1.3V60c0-.7.6-1.3 1.3-1.3Z"/><path d="M212.5 46c0-10.2 6.8-18.6 17.8-18.6s17.8 8.3 17.8 18.6c0 10.2-6.8 18.6-17.8 18.6 -11.1 0-17.8-8.3-17.8-18.6Zm17.7 12.6c7.1 0 11.1-5.7 11.1-12.6 0-6.8-4.1-12.6-11.1-12.6 -7.1 0-11.1 5.7-11.1 12.6 0 6.9 4.1 12.6 11.1 12.6Z"/><path d="M262.7 59h10.2c.7 0 1.3.6 1.3 1.3v3.1c0 .7-.6 1.3-1.3 1.3h-15.2c-.7 0-1.3-.6-1.3-1.3V23.2h-5.1c-.7 0-1.3-.6-1.3-1.3v-3.1c0-.7.6-1.3 1.3-1.3h7.5c2.1 0 3.9 1.8 3.9 3.9V59v0Z"/><path d="M285.2 59h10.2c.7 0 1.3.6 1.3 1.3v3.1c0 .7-.6 1.3-1.3 1.3h-15.2c-.7 0-1.3-.6-1.3-1.3V23.2h-5.1c-.7 0-1.3-.6-1.3-1.3v-3.1c0-.7.6-1.3 1.3-1.3h7.5c2.1 0 3.9 1.8 3.9 3.9l0 37.6v0Z"/><path d="M10.3 31.3c-3.2-3-5.4-6.9-5.4-11.5v-.5c.3-7.8 6.7-14.2 14.5-14.4h49.9c1.3.1 2.3 1 2.3 2.3v42.3c1.1.2 1.7.4 2.8.7 .9.3 2.1 1 2.1 1v-44c-.1-4-3.3-7.2-7.3-7.2H19.4C8.6.2-.001 9-.001 19.8c0 6.3 2.9 11.7 7.5 15.4 .3.3.6.6 1.5.6 1.5 0 2.5-1.2 2.4-2.4 0-1.1-.4-1.5-1.1-2.1Z"/><path d="M68 52.3H28.9c-2.6 0-4.7 2.1-4.7 4.8v5.6c.1 2.6 2.3 4.8 4.9 4.8H32v-4.8h-2.9v-5.5s.7 0 1.6 0c4.9 0 8.6 4.6 8.6 9.5 0 4.4-4 9.9-10.6 9.5 -5.9-.4-9.1-5.6-9.1-9.5V19c0-2.1-1.8-3.9-3.9-3.9h-3.9V20h2.9v46.8c-.2 9.5 6.8 14.3 14 14.3l39.4.1c7.9 0 14.4-6.4 14.4-14.4 -.1-8.1-6.5-14.5-14.5-14.5ZM77.5 67c-.2 5.1-4.4 9.2-9.5 9.2l-27.4-.1c2.2-2.5 3.5-5.8 3.5-9.4 0-5.6-3.3-9.5-3.3-9.5h27.3c5.2 0 9.5 4.3 9.5 9.5l-.1.3Z"/><path d="M57.5 20.8H28v-4.9h29.5c1.3 0 2.4 1.1 2.4 2.4 0 1.4-1 2.5-2.4 2.5Z"/><path d="M57.5 43.8H28v-4.9h29.5c1.3 0 2.4 1.1 2.4 2.4 0 1.4-1 2.5-2.4 2.5Z"/><path d="M62.7 32.3H28v-4.9h34.7c1.3 0 2.4 1.1 2.4 2.4 -.001 1.4-1.1 2.5-2.4 2.5Z"/></g></svg>